<svg width="101" height="100" viewBox="0 0 101 100" color="#41066e" fill="none" xmlns="http://www.w3.org/2000/svg">
<path opacity="0.2" d="M35.9932 50.9373C37.1526 46.6063 39.391 42.64 42.4992 39.4089C45.6074 36.1778 49.4839 33.7872 53.7666 32.4607H53.8057C53.8447 32.0701 53.8447 31.6794 53.8447 31.2888C53.8572 25.6267 51.9473 20.1281 48.4275 15.6929C44.9077 11.2577 39.9867 8.14872 34.4697 6.87476V6.87476C34.8769 8.72229 35.0864 10.6079 35.0947 12.4998C35.0844 19.127 32.4472 25.4798 27.761 30.166C23.0748 34.8522 16.722 37.4894 10.0947 37.4998C8.20287 37.4914 6.31726 37.2819 4.46973 36.8748V36.8748C5.36288 40.7184 7.15183 44.2966 9.6907 47.3174C12.2296 50.3383 15.4465 52.7163 19.0791 54.2576V54.2576C22.2085 51.5025 26.2379 49.988 30.4072 49.9998C32.3092 49.99 34.1986 50.3071 35.9932 50.9373V50.9373Z" fill="#41066E"/>
<path d="M35.0937 57.8125C35.0937 52.5589 36.6516 47.4234 39.5703 43.0552C42.4891 38.687 46.6376 35.2824 51.4912 33.272C56.3449 31.2615 61.6857 30.7355 66.8383 31.7604C71.991 32.7853 76.7239 35.3152 80.4388 39.03C84.1536 42.7448 86.6834 47.4778 87.7084 52.6304C88.7333 57.783 88.2072 63.1239 86.1968 67.9775C84.1863 72.8312 80.7818 76.9797 76.4136 79.8984C72.0454 82.8171 66.9098 84.375 61.6562 84.375H30.4062C25.8478 84.375 21.4761 82.5642 18.2529 79.3409C15.0296 76.1176 13.2188 71.7459 13.2188 67.1875C13.2188 62.6291 15.0296 58.2574 18.2529 55.0341C21.4761 51.8108 25.8478 50 30.4062 50C32.3082 49.9902 34.1977 50.3073 35.9922 50.9375" stroke="#41066E" stroke-width="6.375" stroke-linecap="round" stroke-linejoin="round"/>
<path d="M19.0791 54.2576C15.4465 52.7163 12.2296 50.3383 9.6907 47.3174C7.15183 44.2966 5.36288 40.7184 4.46973 36.8748V36.8748C6.31726 37.2819 8.20287 37.4914 10.0947 37.4998C16.722 37.4894 23.0748 34.8522 27.761 30.166C32.4472 25.4798 35.0844 19.127 35.0947 12.4998C35.0864 10.6079 34.8769 8.72229 34.4697 6.87476C39.9801 8.14722 44.8963 11.2504 48.4153 15.6776C51.9344 20.1048 53.8483 25.5943 53.8447 31.2498C53.8447 31.6404 53.8447 32.031 53.8057 32.4216" stroke="#41066E" stroke-width="6.375" stroke-linecap="round" stroke-linejoin="round"/>
</svg>
