<svg width="100" height="100" viewBox="0 0 100 100" color="#41066e" fill="none" xmlns="http://www.w3.org/2000/svg">
<path opacity="0.2" d="M31.25 50C31.25 43.8193 33.0828 37.7775 36.5166 32.6384C39.9504 27.4994 44.831 23.494 50.5411 21.1288C56.2513 18.7635 62.5347 18.1447 68.5966 19.3505C74.6585 20.5563 80.2267 23.5325 84.5971 27.9029C88.9675 32.2733 91.9438 37.8415 93.1495 43.9034C94.3553 49.9653 93.7365 56.2487 91.3712 61.9589C89.006 67.6691 85.0006 72.5496 79.8616 75.9834C74.7225 79.4172 68.6807 81.25 62.5 81.25H28.125C22.3234 81.25 16.7594 78.9453 12.657 74.843C8.55468 70.7406 6.25 65.1766 6.25 59.375C6.25 53.5734 8.55468 48.0094 12.657 43.9071C16.7594 39.8047 22.3234 37.5 28.125 37.5C29.9552 37.4993 31.7786 37.7223 33.5547 38.1641" fill="#2DF067"/>
<path d="M31.25 50C31.25 43.8193 33.0828 37.7775 36.5166 32.6384C39.9504 27.4994 44.831 23.494 50.5411 21.1288C56.2513 18.7635 62.5347 18.1447 68.5966 19.3505C74.6585 20.5563 80.2267 23.5325 84.5971 27.9029C88.9675 32.2733 91.9438 37.8415 93.1495 43.9034C94.3553 49.9653 93.7365 56.2487 91.3712 61.9589C89.006 67.6691 85.0006 72.5496 79.8616 75.9834C74.7225 79.4172 68.6807 81.25 62.5 81.25H28.125C22.3234 81.25 16.7594 78.9453 12.657 74.843C8.55468 70.7406 6.25 65.1766 6.25 59.375C6.25 53.5734 8.55468 48.0094 12.657 43.9071C16.7594 39.8047 22.3234 37.5 28.125 37.5C29.9552 37.4993 31.7786 37.7223 33.5547 38.1641" stroke="#2DF067" stroke-width="6.25" stroke-linecap="round" stroke-linejoin="round"/>
</svg>
