<svg width="101" height="100" viewBox="0 0 101 100" color="#41066e" fill="none" xmlns="http://www.w3.org/2000/svg">
<path opacity="0.2" d="M51.9825 32.9689C50.1169 28.7917 46.7884 25.4407 42.6239 23.5469C38.4594 21.6531 33.7461 21.3472 29.3718 22.6869C24.9974 24.0266 21.2637 26.9194 18.8739 30.8205C16.4841 34.7216 15.603 39.3618 16.3966 43.8674C16.9949 47.1981 18.4639 50.3113 20.6544 52.8908V52.8908C23.4725 50.9991 26.7915 49.9925 30.1856 50.0002C32.0876 49.9904 33.9771 50.3075 35.7716 50.9377V50.9377C36.8661 46.8768 38.9052 43.1323 41.7225 40.0095C44.5398 36.8868 48.0554 34.4743 51.9825 32.9689V32.9689Z" fill="#2DF067"/>
<path d="M34.875 57.8125C34.875 52.5589 36.4329 47.4234 39.3516 43.0552C42.2703 38.687 46.4188 35.2824 51.2725 33.272C56.1261 31.2615 61.467 30.7355 66.6196 31.7604C71.7722 32.7853 76.5052 35.3152 80.22 39.03C83.9349 42.7448 86.4647 47.4778 87.4896 52.6304C88.5145 57.783 87.9885 63.1239 85.978 67.9775C83.9676 72.8312 80.563 76.9797 76.1948 79.8984C71.8266 82.8171 66.6911 84.375 61.4375 84.375H30.1875C25.6291 84.375 21.2574 82.5642 18.0341 79.3409C14.8108 76.1176 13 71.7459 13 67.1875C13 62.6291 14.8108 58.2574 18.0341 55.0341C21.2574 51.8108 25.6291 50 30.1875 50C32.0894 49.9902 33.9789 50.3073 35.7734 50.9375" stroke="#2DF067" stroke-width="6.375" stroke-linecap="round" stroke-linejoin="round"/>
<path d="M31.6328 22.1482L29.9922 12.9294" stroke="#2DF067" stroke-width="6.375" stroke-linecap="round" stroke-linejoin="round"/>
<path d="M19.5234 29.8826L11.8281 24.4919" stroke="#2DF067" stroke-width="6.375" stroke-linecap="round" stroke-linejoin="round"/>
<path d="M16.3994 43.8674L7.18066 45.5081" stroke="#2DF067" stroke-width="6.375" stroke-linecap="round" stroke-linejoin="round"/>
<path d="M45.6172 25.2734L51.0078 17.5781" stroke="#2DF067" stroke-width="6.375" stroke-linecap="round" stroke-linejoin="round"/>
<path d="M20.6544 52.8908C18.4639 50.3113 16.9949 47.1981 16.3966 43.8674C15.603 39.3618 16.4841 34.7216 18.8739 30.8205C21.2637 26.9194 24.9974 24.0266 29.3718 22.6869C33.7461 21.3472 38.4594 21.6531 42.6239 23.5469C46.7884 25.4407 50.1169 28.7917 51.9825 32.9689" stroke="#2DF067" stroke-width="6.375" stroke-linecap="round" stroke-linejoin="round"/>
</svg>
