<svg width="101" height="100" viewBox="0 0 101 100" color="#41066e" fill="none" xmlns="http://www.w3.org/2000/svg">
<path opacity="0.2" d="M34.875 35.9375C34.875 30.6839 36.4329 25.5484 39.3516 21.1802C42.2703 16.812 46.4188 13.4074 51.2725 11.397C56.1261 9.38651 61.467 8.86048 66.6196 9.8854C71.7722 10.9103 76.5052 13.4402 80.22 17.155C83.9349 20.8698 86.4647 25.6028 87.4896 30.7554C88.5145 35.908 87.9885 41.2489 85.9781 46.1025C83.9676 50.9562 80.563 55.1047 76.1948 58.0234C71.8267 60.9421 66.6911 62.5 61.4375 62.5H30.1875C25.6291 62.5 21.2574 60.6892 18.0341 57.4659C14.8108 54.2426 13 49.8709 13 45.3125C13 40.7541 14.8108 36.3824 18.0341 33.1591C21.2574 29.9358 25.6291 28.125 30.1875 28.125C32.0894 28.1152 33.9789 28.4323 35.7734 29.0625" fill="#41066E"/>
<path d="M50.5 93.75L60.7734 78.125" stroke="#41066E" stroke-width="6.25" stroke-linecap="round" stroke-linejoin="round"/>
<path d="M39.0557 81.25L51.3994 62.5" stroke="#41066E" stroke-width="6.25" stroke-linecap="round" stroke-linejoin="round"/>
<path d="M34.875 35.9375C34.875 30.6839 36.4329 25.5484 39.3516 21.1802C42.2703 16.812 46.4188 13.4074 51.2725 11.397C56.1261 9.38651 61.467 8.86048 66.6196 9.8854C71.7722 10.9103 76.5052 13.4402 80.22 17.155C83.9349 20.8698 86.4647 25.6028 87.4896 30.7554C88.5145 35.908 87.9885 41.2489 85.9781 46.1025C83.9676 50.9562 80.563 55.1047 76.1948 58.0234C71.8267 60.9421 66.6911 62.5 61.4375 62.5H30.1875C25.6291 62.5 21.2574 60.6892 18.0341 57.4659C14.8108 54.2426 13 49.8709 13 45.3125C13 40.7541 14.8108 36.3824 18.0341 33.1591C21.2574 29.9358 25.6291 28.125 30.1875 28.125C32.0894 28.1152 33.9789 28.4323 35.7734 29.0625" stroke="#41066E" stroke-width="6.25" stroke-linecap="round" stroke-linejoin="round"/>
</svg>
