<svg width="100" height="100" viewBox="0 0 100 100" color="#41066e" fill="none" xmlns="http://www.w3.org/2000/svg">
<path opacity="0.2" d="M34.375 35.9375C34.375 30.6839 35.9329 25.5484 38.8516 21.1802C41.7703 16.812 45.9188 13.4074 50.7725 11.397C55.6261 9.38651 60.967 8.86048 66.1196 9.8854C71.2722 10.9103 76.0052 13.4402 79.72 17.155C83.4349 20.8698 85.9647 25.6028 86.9896 30.7554C88.0145 35.908 87.4885 41.2489 85.478 46.1025C83.4676 50.9562 80.063 55.1047 75.6948 58.0234C71.3266 60.9421 66.1911 62.5 60.9375 62.5H29.6875C25.1291 62.5 20.7574 60.6892 17.5341 57.4659C14.3108 54.2426 12.5 49.8709 12.5 45.3125C12.5 40.7541 14.3108 36.3824 17.5341 33.1591C20.7574 29.9358 25.1291 28.125 29.6875 28.125C31.5894 28.1152 33.4789 28.4323 35.2734 29.0625" fill="#2DF067"/>
<path d="M50 93.75L60.2734 78.125H40.625L50.8984 62.5" stroke="#2DF067" stroke-width="6.25" stroke-linecap="round" stroke-linejoin="round"/>
<path d="M34.375 35.9375C34.375 30.6839 35.9329 25.5484 38.8516 21.1802C41.7703 16.812 45.9188 13.4074 50.7725 11.397C55.6261 9.38651 60.967 8.86048 66.1196 9.8854C71.2722 10.9103 76.0052 13.4402 79.72 17.155C83.4349 20.8698 85.9647 25.6028 86.9896 30.7554C88.0145 35.908 87.4885 41.2489 85.478 46.1025C83.4676 50.9562 80.063 55.1047 75.6948 58.0234C71.3266 60.9421 66.1911 62.5 60.9375 62.5H29.6875C25.1291 62.5 20.7574 60.6892 17.5341 57.4659C14.3108 54.2426 12.5 49.8709 12.5 45.3125C12.5 40.7541 14.3108 36.3824 17.5341 33.1591C20.7574 29.9358 25.1291 28.125 29.6875 28.125C31.5894 28.1152 33.4789 28.4323 35.2734 29.0625" stroke="#2DF067" stroke-width="6.25" stroke-linecap="round" stroke-linejoin="round"/>
</svg>
