<svg width="101" height="100" viewBox="0 0 101 100" color="#41066e" fill="none" xmlns="http://www.w3.org/2000/svg">
<path opacity="0.2" d="M85.1488 59.6096C79.0134 61.3301 72.5306 61.3865 66.3661 59.773C60.2017 58.1595 54.5778 54.9342 50.0721 50.4285C45.5664 45.9227 42.3411 40.2989 40.7276 34.1345C39.1141 27.97 39.1705 21.4872 40.891 15.3518C34.842 17.0354 29.3397 20.2745 24.9322 24.7465C20.5246 29.2184 17.3656 34.7671 15.7698 40.8398C14.1741 46.9125 14.1972 53.2974 15.837 59.3584C17.4767 65.4194 20.6758 70.945 25.1157 75.3849C29.5555 79.8247 35.0812 83.0239 41.1422 84.6636C47.2032 86.3034 53.5881 86.3265 59.6608 84.7307C65.7335 83.135 71.2822 79.976 75.7541 75.5684C80.226 71.1609 83.4651 65.6586 85.1488 59.6096V59.6096Z" fill="#41066E"/>
<path d="M85.1488 59.6096C79.0134 61.3301 72.5306 61.3865 66.3661 59.773C60.2017 58.1595 54.5778 54.9342 50.0721 50.4285C45.5664 45.9227 42.3411 40.2989 40.7276 34.1345C39.1141 27.97 39.1705 21.4872 40.891 15.3518C34.842 17.0354 29.3397 20.2745 24.9322 24.7465C20.5246 29.2184 17.3656 34.7671 15.7698 40.8398C14.1741 46.9125 14.1972 53.2974 15.837 59.3584C17.4767 65.4194 20.6758 70.945 25.1157 75.3849C29.5555 79.8247 35.0812 83.0239 41.1422 84.6636C47.2032 86.3034 53.5881 86.3265 59.6608 84.7307C65.7335 83.135 71.2822 79.976 75.7541 75.5684C80.226 71.1609 83.4651 65.6586 85.1488 59.6096V59.6096Z" stroke="#41066E" stroke-width="6.25" stroke-linecap="round" stroke-linejoin="round"/>
</svg>
